. 
 
http://www.torrenting.com          :     Once & For all ;)


               www . Torrenting . Com 

(((((((((((((= Enjoy No RAR releases =))))))))))))))))))))


...................................NFO:....................................

.[img]http://img827.imageshack.us/img827/82/sonin.jpg[/img]


[color=blue][size=5][b]The.Son.of.No.One.2011.DVDRip.XVID.AC3.HQ.Hive-CM8[/b][/size][/color]


[b]Thx Hive

CM8 Doing It Right The First Time :D


Source: German DVD-R (had Eng audio on it)

Encode:
added brightness, sharpness, rgb, denoise
got very nice
enjoy

Video: 720x304 @bitrate 1800 2pass
Audio: English AC3 5.1 @448
Sample: Yes, included[/b]
 
http://www.imdb.com/title/tt1535612/


General
Complete name                  : The.Son.of.No.One.2011.DVDRip.XVID.AC3.HQ.Hive-CM8.avi
Format                         : AVI
Format/Info                    : Audio Video Interleave
File size                      : 1.42 GiB
Duration                       : 1h 29mn
Overall bit rate               : 2 257 Kbps
Writing application            : Nandub v1.0rc2
Writing library                : Nandub build 1853/release

Video
ID                             : 0
Format                         : MPEG-4 Visual
Format profile                 : Advanced Simple@L5
Format settings, BVOP          : 2
Format settings, QPel          : Yes
Format settings, GMC           : No warppoints
Format settings, Matrix        : Default (H.263)
Muxing mode                    : Packed bitstream
Codec ID                       : XVID
Codec ID/Hint                  : XviD
Duration                       : 1h 29mn
Bit rate                       : 1 800 Kbps
Width                          : 720 pixels
Height                         : 304 pixels
Display aspect ratio           : 2.35:1
Frame rate                     : 25.000 fps
Color space                    : YUV
Chroma subsampling             : 4:2:0
Bit depth                      : 8 bits
Scan type                      : Progressive
Compression mode               : Lossy
Bits/(Pixel*Frame)             : 0.329
Stream size                    : 1.13 GiB (80%)
Writing library                : XviD 1.2.1 (UTC 2008-12-04)

Audio
ID                             : 1
Format                         : AC-3
Format/Info                    : Audio Coding 3
Mode extension                 : CM (complete main)
Codec ID                       : 2000
Duration                       : 1h 29mn
Bit rate mode                  : Constant
Bit rate                       : 448 Kbps
Channel(s)                     : 6 channels
Channel positions              : Front: L C R, Side: L R, LFE
Sampling rate                  : 48.0 KHz
Bit depth                      : 16 bits
Compression mode               : Lossy
Stream size                    : 288 MiB (20%)
Alignment                      : Split accross interleaves
Interleave, duration           : 40 ms (1.00 video frame)
Interleave, preload duration   : 500 ms


Plot:
A young cop is assigned to a precinct in the working class neighborhood where
he grew up, and an old secret threatens to destroy his life and his family.


Cast:
Channing Tatum     ...    Officer Jonathan White
Al Pacino          ...    Detective Charles Stanford
Juliette Binoche   ...    Loren Bridges
Tracy Morgan       ...    Vincent Carter
Katie Holmes       ...    Kerry White
Ray Liotta         ...    Captain Marion Mathers 
 	 
 	
[img]http://img233.imageshack.us/img233/7451/40654260.png[/img]
[img]http://img196.imageshack.us/img196/3662/sosoa.png[/img]
[img]http://img204.imageshack.us/img204/6518/sososo.png[/img]
[img]http://img833.imageshack.us/img833/6915/sosososo.png[/img]
[img]http://img231.imageshack.us/img231/5450/sososososo.png[/img]
[img]http://img856.imageshack.us/img856/8949/sosososososo.png[/img]



Greetz

ViSiON,SiC,SANTi,3LT0N,YanKeeS,MAGNET,THC,T0XiC,LKRG,FANTASIA-PLAY,FANTASIA-M,FLAWL3SS,
D2U,WBZ,BHRG,NOVA,Vik,Rapeseed,SAFC,goldadvance,MEMORY100,KaN1vE,Unevano,Pinnz,Wayne
Mr Hive,cedrict wink,and all P2P groups
Great Work Guys :D

LOOKING FOR ANYTHING YOU WANT TO LOOK AND SOUND BETTER

CM8@hushmail.com